{
  "accessors": [
    {
      "bufferView": 1,
      "componentType": 5123,
      "type": "SCALAR",
      "count": 1968
    },
    {
      "bufferView": 2,
      "componentType": 5126,
      "type": "VEC3",
      "count": 1312,
      "min": [7, 9, 0],
      "max": [16, 16, 16]
    },
    {
      "bufferView": 2,
      "componentType": 5126,
      "type": "VEC3",
      "byteOffset": 12,
      "count": 1312
    },
    {
      "bufferView": 2,
      "componentType": 5126,
      "type": "VEC2",
      "byteOffset": 24,
      "count": 1312
    },
    {
      "bufferView": 3,
      "componentType": 5123,
      "type": "SCALAR",
      "count": 1038
    },
    {
      "bufferView": 4,
      "componentType": 5126,
      "type": "VEC3",
      "count": 692,
      "min": [0, 9, 0],
      "max": [5, 16, 16]
    },
    {
      "bufferView": 4,
      "componentType": 5126,
      "type": "VEC3",
      "byteOffset": 12,
      "count": 692
    },
    {
      "bufferView": 4,
      "componentType": 5126,
      "type": "VEC2",
      "byteOffset": 24,
      "count": 692
    },
    {
      "bufferView": 5,
      "componentType": 5123,
      "type": "SCALAR",
      "count": 2274
    },
    {
      "bufferView": 6,
      "componentType": 5126,
      "type": "VEC3",
      "count": 1516,
      "min": [7, 0, 0],
      "max": [16, 9, 16]
    },
    {
      "bufferView": 6,
      "componentType": 5126,
      "type": "VEC3",
      "byteOffset": 12,
      "count": 1516
    },
    {
      "bufferView": 6,
      "componentType": 5126,
      "type": "VEC2",
      "byteOffset": 24,
      "count": 1516
    },
    {
      "bufferView": 7,
      "componentType": 5123,
      "type": "SCALAR",
      "count": 1290
    },
    {
      "bufferView": 8,
      "componentType": 5126,
      "type": "VEC3",
      "count": 860,
      "min": [0, 0, 0],
      "max": [5, 8, 16]
    },
    {
      "bufferView": 8,
      "componentType": 5126,
      "type": "VEC3",
      "byteOffset": 12,
      "count": 860
    },
    {
      "bufferView": 8,
      "componentType": 5126,
      "type": "VEC2",
      "byteOffset": 24,
      "count": 860
    },
    {
      "bufferView": 9,
      "componentType": 5123,
      "type": "SCALAR",
      "count": 1614
    },
    {
      "bufferView": 10,
      "componentType": 5126,
      "type": "VEC3",
      "count": 1076,
      "min": [7, 9, 0],
      "max": [16, 16, 12]
    },
    {
      "bufferView": 10,
      "componentType": 5126,
      "type": "VEC3",
      "byteOffset": 12,
      "count": 1076
    },
    {
      "bufferView": 10,
      "componentType": 5126,
      "type": "VEC2",
      "byteOffset": 24,
      "count": 1076
    },
    {
      "bufferView": 11,
      "componentType": 5123,
      "type": "SCALAR",
      "count": 804
    },
    {
      "bufferView": 12,
      "componentType": 5126,
      "type": "VEC3",
      "count": 536,
      "min": [0, 9, 0],
      "max": [4, 16, 12]
    },
    {
      "bufferView": 12,
      "componentType": 5126,
      "type": "VEC3",
      "byteOffset": 12,
      "count": 536
    },
    {
      "bufferView": 12,
      "componentType": 5126,
      "type": "VEC2",
      "byteOffset": 24,
      "count": 536
    },
    {
      "bufferView": 13,
      "componentType": 5123,
      "type": "SCALAR",
      "count": 1566
    },
    {
      "bufferView": 14,
      "componentType": 5126,
      "type": "VEC3",
      "count": 1044,
      "min": [7, 0, 0],
      "max": [16, 7, 12]
    },
    {
      "bufferView": 14,
      "componentType": 5126,
      "type": "VEC3",
      "byteOffset": 12,
      "count": 1044
    },
    {
      "bufferView": 14,
      "componentType": 5126,
      "type": "VEC2",
      "byteOffset": 24,
      "count": 1044
    },
    {
      "bufferView": 15,
      "componentType": 5123,
      "type": "SCALAR",
      "count": 846
    },
    {
      "bufferView": 16,
      "componentType": 5126,
      "type": "VEC3",
      "count": 564,
      "min": [0, 0, 0],
      "max": [4, 7, 12]
    },
    {
      "bufferView": 16,
      "componentType": 5126,
      "type": "VEC3",
      "byteOffset": 12,
      "count": 564
    },
    {
      "bufferView": 16,
      "componentType": 5126,
      "type": "VEC2",
      "byteOffset": 24,
      "count": 564
    },
    {
      "bufferView": 17,
      "componentType": 5123,
      "type": "SCALAR",
      "count": 252
    },
    {
      "bufferView": 18,
      "componentType": 5126,
      "type": "VEC3",
      "count": 168,
      "min": [0, 11, 0],
      "max": [1, 16, 10]
    },
    {
      "bufferView": 18,
      "componentType": 5126,
      "type": "VEC3",
      "byteOffset": 12,
      "count": 168
    },
    {
      "bufferView": 18,
      "componentType": 5126,
      "type": "VEC2",
      "byteOffset": 24,
      "count": 168
    },
    {
      "bufferView": 19,
      "componentType": 5123,
      "type": "SCALAR",
      "count": 192
    },
    {
      "bufferView": 20,
      "componentType": 5126,
      "type": "VEC3",
      "count": 128,
      "min": [0, 0, 6],
      "max": [1, 4, 9]
    },
    {
      "bufferView": 20,
      "componentType": 5126,
      "type": "VEC3",
      "byteOffset": 12,
      "count": 128
    },
    {
      "bufferView": 20,
      "componentType": 5126,
      "type": "VEC2",
      "byteOffset": 24,
      "count": 128
    }
  ],
  "asset": {
    "generator": "goxel",
    "version": "2.0"
  },
  "bufferViews": [
    {
      "buffer": 0,
      "byteLength": 117
    },
    {
      "buffer": 2,
      "byteLength": 3936
    },
    {
      "buffer": 1,
      "byteLength": 41984,
      "byteStride": 32
    },
    {
      "buffer": 4,
      "byteLength": 2076
    },
    {
      "buffer": 3,
      "byteLength": 22144,
      "byteStride": 32
    },
    {
      "buffer": 6,
      "byteLength": 4548
    },
    {
      "buffer": 5,
      "byteLength": 48512,
      "byteStride": 32
    },
    {
      "buffer": 8,
      "byteLength": 2580
    },
    {
      "buffer": 7,
      "byteLength": 27520,
      "byteStride": 32
    },
    {
      "buffer": 10,
      "byteLength": 3228
    },
    {
      "buffer": 9,
      "byteLength": 34432,
      "byteStride": 32
    },
    {
      "buffer": 12,
      "byteLength": 1608
    },
    {
      "buffer": 11,
      "byteLength": 17152,
      "byteStride": 32
    },
    {
      "buffer": 14,
      "byteLength": 3132
    },
    {
      "buffer": 13,
      "byteLength": 33408,
      "byteStride": 32
    },
    {
      "buffer": 16,
      "byteLength": 1692
    },
    {
      "buffer": 15,
      "byteLength": 18048,
      "byteStride": 32
    },
    {
      "buffer": 18,
      "byteLength": 504
    },
    {
      "buffer": 17,
      "byteLength": 5376,
      "byteStride": 32
    },
    {
      "buffer": 20,
      "byteLength": 384
    },
    {
      "buffer": 19,
      "byteLength": 4096,
      "byteStride": 32
    }
  ],
  "buffers": [
    {
      "uri": "data:application/octet-stream;base64,",
      "byteLength": 117
    },
    {
      "uri": "data:application/octet-stream;base64,",
      "byteLength": 41984
    },
    {
      "uri": "data:application/octet-stream;base64,",
      "byteLength": 3936
    },
    {
      "uri": "data:application/octet-stream;base64,",
      "byteLength": 22144
    },
    {
      "uri": "data:application/octet-stream;base64,",
      "byteLength": 2076
    },
    {
      "uri": "data:application/octet-stream;base64,",
      "byteLength": 48512
    },
    {
      "uri": "data:application/octet-stream;base64,",
      "byteLength": 4548
    },
    {
      "uri": "data:application/octet-stream;base64,",
      "byteLength": 27520
    },
    {
      "uri": "data:application/octet-stream;base64,",
      "byteLength": 2580
    },
    {
      "uri": "data:application/octet-stream;base64,",
      "byteLength": 34432
    },
    {
      "uri": "data:application/octet-stream;base64,",
      "byteLength": 3228
    },
    {
      "uri": "data:application/octet-stream;base64,",
      "byteLength": 17152
    },
    {
      "uri": "data:application/octet-stream;base64,",
      "byteLength": 1608
    },
    {
      "uri": "data:application/octet-stream;base64,",
      "byteLength": 33408
    },
    {
      "uri": "data:application/octet-stream;base64,",
      "byteLength": 3132
    },
    {
      "uri": "data:application/octet-stream;base64,",
      "byteLength": 18048
    },
    {
      "uri": "data:application/octet-stream;base64,",
      "byteLength": 1692
    },
    {
      "uri": "data:application/octet-stream;base64,",
      "byteLength": 5376
    },
    {
      "uri": "data:application/octet-stream;base64,",
      "byteLength": 504
    },
    {
      "uri": "data:application/octet-stream;base64,",
      "byteLength": 4096
    },
    {
      "uri": "data:application/octet-stream;base64,",
      "byteLength": 384
    }
  ],
  "images": [
    {
      "bufferView": 0,
      "mimeType": "image/png"
    }
  ],
  "meshes": [
    {
      "primitives": [
        {
          "indices": 0,
          "material": 1,
          "attributes": {
            "POSITION": 1,
            "NORMAL": 2,
            "TEXCOORD_0": 3
          }
        }
      ]
    },
    {
      "primitives": [
        {
          "indices": 4,
          "material": 1,
          "attributes": {
            "POSITION": 5,
            "NORMAL": 6,
            "TEXCOORD_0": 7
          }
        }
      ]
    },
    {
      "primitives": [
        {
          "indices": 8,
          "material": 1,
          "attributes": {
            "POSITION": 9,
            "NORMAL": 10,
            "TEXCOORD_0": 11
          }
        }
      ]
    },
    {
      "primitives": [
        {
          "indices": 12,
          "material": 1,
          "attributes": {
            "POSITION": 13,
            "NORMAL": 14,
            "TEXCOORD_0": 15
          }
        }
      ]
    },
    {
      "primitives": [
        {
          "indices": 16,
          "material": 1,
          "attributes": {
            "POSITION": 17,
            "NORMAL": 18,
            "TEXCOORD_0": 19
          }
        }
      ]
    },
    {
      "primitives": [
        {
          "indices": 20,
          "material": 1,
          "attributes": {
            "POSITION": 21,
            "NORMAL": 22,
            "TEXCOORD_0": 23
          }
        }
      ]
    },
    {
      "primitives": [
        {
          "indices": 24,
          "material": 1,
          "attributes": {
            "POSITION": 25,
            "NORMAL": 26,
            "TEXCOORD_0": 27
          }
        }
      ]
    },
    {
      "primitives": [
        {
          "indices": 28,
          "material": 1,
          "attributes": {
            "POSITION": 29,
            "NORMAL": 30,
            "TEXCOORD_0": 31
          }
        }
      ]
    },
    {
      "primitives": [
        {
          "indices": 32,
          "material": 2,
          "attributes": {
            "POSITION": 33,
            "NORMAL": 34,
            "TEXCOORD_0": 35
          }
        }
      ]
    },
    {
      "primitives": [
        {
          "indices": 36,
          "material": 2,
          "attributes": {
            "POSITION": 37,
            "NORMAL": 38,
            "TEXCOORD_0": 39
          }
        }
      ]
    }
  ],
  "materials": [
    {
      "name": "Material.1",
      "pbrMetallicRoughness": {
        "baseColorTexture": {
          "index": 0
        },
        "metallicFactor": 0.200000003,
        "roughnessFactor": 0.5,
        "baseColorFactor": [0, 0.921568632, 1, 1]
      },
      "emissiveFactor": [0, 1.8431375, 2.00000024]
    },
    {
      "name": "Material.2",
      "pbrMetallicRoughness": {
        "baseColorTexture": {
          "index": 0
        },
        "metallicFactor": 0.200000003,
        "roughnessFactor": 0.5,
        "baseColorFactor": [0.521568656, 0.521568656, 0.521568656, 1]
      }
    },
    {
      "name": "Material.3",
      "pbrMetallicRoughness": {
        "baseColorTexture": {
          "index": 0
        },
        "metallicFactor": 0.200000003,
        "roughnessFactor": 0.5,
        "baseColorFactor": [0, 1, 0, 1]
      },
      "emissiveFactor": [0, 2.99999928, 0]
    }
  ],
  "nodes": [
    {
      "children": [ 9, 12 ],
      "matrix": [1, 0, 0, 0, 0, 0, -1, 0, 0, 1, 0, 0, 0, 0, 0, 1]
    },
    {
      "mesh": 0,
      "translation": [-16, -16, 0]
    },
    {
      "mesh": 1,
      "translation": [0, -16, 0]
    },
    {
      "mesh": 2,
      "translation": [-16, 0, 0]
    },
    {
      "mesh": 3,
      "translation": [0, 0, 0]
    },
    {
      "mesh": 4,
      "translation": [-16, -16, 16]
    },
    {
      "mesh": 5,
      "translation": [0, -16, 16]
    },
    {
      "mesh": 6,
      "translation": [-16, 0, 16]
    },
    {
      "mesh": 7,
      "translation": [0, 0, 16]
    },
    {
      "children": [ 1, 2, 3, 4, 5, 6, 7, 8 ]
    },
    {
      "mesh": 8,
      "translation": [0, -16, 16]
    },
    {
      "mesh": 9,
      "translation": [0, 0, 16]
    },
    {
      "children": [ 10, 11 ]
    }
  ],
  "scenes": [
    {
      "nodes": [ 0 ]
    }
  ],
  "textures": [
    {
      "source": 0
    }
  ]
}
